<svg height="512pt" viewBox="0 -40 512 512" width="512pt" xmlns="http://www.w3.org/2000/svg"><path d="m464 404c-4.425781 0-8-3.574219-8-8v-278.703125c0-4.425781 3.574219-8 8-8s8 3.574219 8 8v278.703125c0 4.425781-3.574219 8-8 8zm0 0"/><path d="m488 404c-4.425781 0-8-3.574219-8-8v-278.703125c0-4.425781 3.574219-8 8-8s8 3.574219 8 8v278.703125c0 4.425781-3.574219 8-8 8zm0 0"/><path d="m476 416c-11.03125 0-20-8.96875-20-20 0-4.425781 3.574219-8 8-8s8 3.574219 8 8c0 2.199219 1.800781 4 4 4s4-1.800781 4-4c0-4.425781 3.574219-8 8-8s8 3.574219 8 8c0 11.03125-8.96875 20-20 20zm0 0"/><path d="m476 128c-19.847656 0-36-16.152344-36-36 0-12.632812 14.902344-76 36-76s36 63.367188 36 76c0 19.847656-16.152344 36-36 36zm0-95.191406c-7.558594 7.816406-20 46.015625-20 59.191406 0 11.03125 8.96875 20 20 20s20-8.96875 20-20c0-13.175781-12.441406-51.375-20-59.191406zm0 0"/><path d="m488 160h-24c-4.425781 0-8-3.574219-8-8s3.574219-8 8-8h24c4.425781 0 8 3.574219 8 8s-3.574219 8-8 8zm0 0"/><path d="m348.742188 298.128906c-1.0625 0-2.140626-.207031-3.175782-.664062-21.488281-9.328125-31.367187-34.410156-22.039062-55.898438 9.359375-21.476562 34.457031-31.375 55.914062-22.039062 4.054688 1.761718 5.910156 6.472656 4.152344 10.519531-1.761719 4.050781-6.464844 5.90625-10.523438 4.152344-13.390624-5.808594-29.03125.359375-34.863281 13.753906-5.816406 13.390625.351563 29.023437 13.746094 34.839844 4.054687 1.757812 5.910156 6.472656 4.152344 10.519531-1.320313 3.015625-4.273438 4.816406-7.363281 4.816406zm0 0"/><path d="m216 400c-119.105469 0-216-89.71875-216-200s96.894531-200 216-200 216 89.71875 216 200c0 4.425781-3.574219 8-8 8s-8-3.574219-8-8c0-101.464844-89.71875-184-200-184s-200 82.535156-200 184 89.71875 184 200 184c51.992188 0 101.246094-18.265625 138.695312-51.441406 12.90625-11.445313 13.847657-17.796875 13.273438-20.566406-1.058594-4.976563-8.945312-10.167969-21.664062-14.25-4.199219-1.351563-6.519532-5.847657-5.167969-10.0625 1.34375-4.191407 5.847656-6.503907 10.0625-5.167969 19.425781 6.230469 30.03125 14.800781 32.433593 26.183593 3.480469 16.519532-12.929687 31.066407-18.320312 35.832032-40.382812 35.777344-93.410156 55.472656-149.3125 55.472656zm0 0"/><path d="m392 240c-4.425781 0-8-3.574219-8-8s3.574219-8 8-8c13.230469 0 24-10.769531 24-24 0-4.425781 3.574219-8 8-8s8 3.574219 8 8c0 22.054688-17.945312 40-40 40zm0 0"/><path d="m392 240c-.824219 0-1.65625-.128906-2.488281-.398438l-15.75-5.144531c-4.195313-1.367187-6.496094-5.882812-5.121094-10.089843 1.367187-4.199219 5.855469-6.527344 10.085937-5.121094l15.753907 5.144531c4.191406 1.371094 6.496093 5.882813 5.121093 10.089844-1.097656 3.375-4.234374 5.519531-7.601562 5.519531zm0 0"/><path d="m331.929688 282.496094c-1.25 0-2.515626-.289063-3.707032-.910156-3.910156-2.050782-5.429687-6.882813-3.375-10.800782 10.28125-19.632812 34.242188-28.097656 54.585938-19.257812 4.054687 1.761718 5.910156 6.472656 4.152344 10.519531-1.761719 4.050781-6.464844 5.90625-10.523438 4.152344-12.679688-5.503907-27.613281-.214844-34.039062 12.007812-1.429688 2.722657-4.207032 4.289063-7.09375 4.289063zm0 0"/><path d="m216 432c-119.105469 0-216-89.71875-216-200 0-4.425781 3.574219-8 8-8s8 3.574219 8 8c0 101.464844 89.71875 184 200 184 51.992188 0 101.246094-18.265625 138.695312-51.441406 10.863282-9.628906 13.289063-15.628906 13.410157-18.964844.152343-4.320312 3.703125-7.722656 7.984375-7.722656.101562 0 .191406 0 .285156.007812 4.417969.160156 7.863281 3.855469 7.714844 8.273438-.335938 9.535156-6.480469 19.480468-18.785156 30.375-40.375 35.777344-93.402344 55.472656-149.304688 55.472656zm0 0"/><path d="m392 272c-4.425781 0-8-3.574219-8-8s3.574219-8 8-8c13.230469 0 24-10.769531 24-24 0-4.425781 3.574219-8 8-8s8 3.574219 8 8c0 22.054688-17.945312 40-40 40zm0 0"/><path d="m392 272c-.824219 0-1.65625-.128906-2.488281-.398438l-15.75-5.144531c-4.195313-1.367187-6.496094-5.882812-5.121094-10.089843 1.367187-4.191407 5.855469-6.519532 10.085937-5.121094l15.753907 5.144531c4.191406 1.371094 6.496093 5.882813 5.121093 10.089844-1.097656 3.375-4.234374 5.519531-7.601562 5.519531zm0 0"/><path d="m240 128c-22.054688 0-40-17.945312-40-40s17.945312-40 40-40 40 17.945312 40 40-17.945312 40-40 40zm0-64c-13.230469 0-24 10.769531-24 24s10.769531 24 24 24 24-10.769531 24-24-10.769531-24-24-24zm0 0"/><path d="m80 240c-22.054688 0-40-17.945312-40-40s17.945312-40 40-40 40 17.945312 40 40-17.945312 40-40 40zm0-64c-13.230469 0-24 10.769531-24 24s10.769531 24 24 24 24-10.769531 24-24-10.769531-24-24-24zm0 0"/><path d="m136 336c-22.054688 0-40-17.945312-40-40s17.945312-40 40-40 40 17.945312 40 40-17.945312 40-40 40zm0-64c-13.230469 0-24 10.769531-24 24s10.769531 24 24 24 24-10.769531 24-24-10.769531-24-24-24zm0 0"/><path d="m136 144c-22.054688 0-40-17.945312-40-40s17.945312-40 40-40 40 17.945312 40 40-17.945312 40-40 40zm0-64c-13.230469 0-24 10.769531-24 24s10.769531 24 24 24 24-10.769531 24-24-10.769531-24-24-24zm0 0"/><path d="m240 352c-22.054688 0-40-17.945312-40-40s17.945312-40 40-40 40 17.945312 40 40-17.945312 40-40 40zm0-64c-13.230469 0-24 10.769531-24 24s10.769531 24 24 24 24-10.769531 24-24-10.769531-24-24-24zm0 0"/><path d="m136 336c-22.054688 0-40-17.945312-40-40s17.945312-40 40-40 40 17.945312 40 40-17.945312 40-40 40zm0-64c-13.230469 0-24 10.769531-24 24s10.769531 24 24 24 24-10.769531 24-24-10.769531-24-24-24zm0 0"/><path d="m376.097656 353.871094c-4.425781 0-8-3.574219-8-8v-32c0-4.421875 3.574219-8 8-8 4.421875 0 8 3.578125 8 8v32c0 4.425781-3.585937 8-8 8zm0 0"/><path d="m424 240c-4.425781 0-8-3.574219-8-8v-32c0-4.425781 3.574219-8 8-8s8 3.574219 8 8v32c0 4.425781-3.574219 8-8 8zm0 0"/><path d="m8 240c-4.425781 0-8-3.574219-8-8v-32c0-4.425781 3.574219-8 8-8s8 3.574219 8 8v32c0 4.425781-3.574219 8-8 8zm0 0"/></svg>