<svg height="512" viewBox="0 0 64 64" width="512" xmlns="http://www.w3.org/2000/svg"><g id="Outline"><g><path d="m27.029 42.154a1 1 0 0 0 .367 1.367l6.927 4a1 1 0 0 0 1-1.733l-6.927-4a1 1 0 0 0 -1.367.366z"/><path d="m41.232 51.464 1.044-2.655a1 1 0 1 0 -1.861-.731l-1.044 2.654a5 5 0 0 1 -7.153 2.5l-8.718-5.032a5 5 0 0 1 -1.411-7.445l3.027-3.8a11.306 11.306 0 0 0 2.3-6.149 7.007 7.007 0 0 1 5.2-6.181 7.546 7.546 0 0 0 -.587.872 5.815 5.815 0 0 0 -.505 4.494 1 1 0 0 0 1.922-.553 3.855 3.855 0 0 1 .352-3 4.957 4.957 0 0 1 2.225-2.038 1 1 0 0 0 -.27-1.9 8.992 8.992 0 0 0 -10.325 8.134 9.336 9.336 0 0 1 -1.875 5.069l-3.028 3.8a7 7 0 0 0 1.975 10.43l8.717 5.032a7 7 0 0 0 10.014-3.5z"/><path d="m49.752 36.8a7.036 7.036 0 0 0 -1.352-8.681 1 1 0 0 0 -1.671.714 5.052 5.052 0 0 1 -1.131 3.038 2.783 2.783 0 0 1 -3.2.882l8.56-16.043.016-.029a.972.972 0 0 0 .069-.163l1.2-3.71a1 1 0 0 0 .851-1.794l1-1.732a1 1 0 0 0 1-1.733l.75-1.3a2.5 2.5 0 0 0 -.915-3.415l-.866-.5a2.5 2.5 0 0 0 -3.415.915.521.521 0 0 1 -.748.151 2.5 2.5 0 0 0 -3.742 1.956l-1.351 8.014-14.907 25.82a1 1 0 0 0 .366 1.367l1.779 1.026a1 1 0 1 0 1-1.732l-.913-.527 2-3.464 3.319 1.917-2.375 4.443a1 1 0 0 0 1.764.941l4.607-8.632a4.831 4.831 0 0 0 5.753-1.463 7.131 7.131 0 0 0 1.046-1.814 5.028 5.028 0 0 1 -.226 4.548 4.929 4.929 0 0 1 -1.583 1.675 9.951 9.951 0 0 0 -3.73 4.778l-.825 2.1a1 1 0 0 0 .564 1.3.983.983 0 0 0 .366.07 1 1 0 0 0 .931-.634l.825-2.1a7.981 7.981 0 0 1 2.963-3.837 6.9 6.9 0 0 0 2.221-2.352zm-3.624-21.724 2.626 1.516-.942 1.765-2.684-1.549zm.742 5.047-.942 1.765-2.8-1.616 1-1.732zm-1.885 3.531-.942 1.765-2.915-1.683 1-1.732zm-1.885 3.531-.942 1.765-3.03-1.75 1-1.732zm-1.885 3.53-.942 1.766-3.146-1.817 1-1.732zm6.923-25.076a.952.952 0 0 0 .011-.106.5.5 0 0 1 .263-.411.535.535 0 0 1 .55.044 2.507 2.507 0 0 0 3.416-.916.5.5 0 0 1 .683-.183l.866.5a.5.5 0 0 1 .182.683l-.75 1.3-.866-.5a1 1 0 0 0 -1 1.733l.866.5-1 1.731-.866-.5a1 1 0 0 0 -1 1.733l.971.56-.943 2.919-2.657-1.534zm-13.01 28.489 1-1.732 3.2 1.85-.942 1.765z"/><path d="m52 55a3 3 0 1 0 3-3 3 3 0 0 0 -3 3zm3-1a1 1 0 1 1 -1 1 1 1 0 0 1 1-1z"/><circle cx="55" cy="48" r="1"/><path d="m61 49a1 1 0 0 0 1-1v-5a1 1 0 0 0 -1-1h-12a1 1 0 0 0 -1 1v18a1 1 0 0 0 1 1h12a1 1 0 0 0 1-1v-9a1 1 0 0 0 -2 0v8h-10v-16h10v4a1 1 0 0 0 1 1z"/><path d="m7 55a3 3 0 1 0 3-3 3 3 0 0 0 -3 3zm3-1a1 1 0 1 1 -1 1 1 1 0 0 1 1-1z"/><circle cx="10" cy="48" r="1"/><path d="m16 42h-12a1 1 0 0 0 -1 1v3a1 1 0 0 0 2 0v-2h10v16h-10v-10a1 1 0 0 0 -2 0v11a1 1 0 0 0 1 1h12a1 1 0 0 0 1-1v-18a1 1 0 0 0 -1-1z"/><path d="m24.658 53.248a1 1 0 1 0 -1.316 1.5l8 7a1 1 0 1 0 1.316-1.5z"/><path d="m25.316 60.051-3-1a1 1 0 0 0 -.632 1.9l3 1a1 1 0 0 0 .632-1.9z"/><path d="m43.293 53.293-7 7a1 1 0 1 0 1.414 1.414l7-7a1 1 0 0 0 -1.414-1.414z"/><path d="m43.553 59.105-2 1a1 1 0 0 0 .894 1.79l2-1a1 1 0 1 0 -.894-1.79z"/><path d="m24 16a3 3 0 0 0 3-3v-4h1a5.006 5.006 0 0 0 5-5 1 1 0 0 0 -1-1h-4a3 3 0 0 0 -3 3v4.184a2.966 2.966 0 0 0 -1-.184 3 3 0 0 0 0 6zm3-10a1 1 0 0 1 1-1h2.829a3.006 3.006 0 0 1 -2.829 2h-1zm-3 6a1 1 0 1 1 -1 1 1 1 0 0 1 1-1z"/><path d="m17.83 34.294-2-3.464.866-.5a5.005 5.005 0 0 0 1.83-6.83 1 1 0 0 0 -1.366-.366l-3.464 2a3 3 0 0 0 -1.1 4.1l1 1.732 1.091 1.889a2.992 2.992 0 1 0 3.144 1.445zm-3.13-7.428 2.45-1.414a3.006 3.006 0 0 1 -1.45 3.148l-.866.5-.5-.866a1 1 0 0 1 .366-1.368zm1.5 9.187a.989.989 0 0 1 -.466.607 1 1 0 0 1 -1.366-.366 1 1 0 0 1 .366-1.366 1 1 0 0 1 .5-.135 1.018 1.018 0 0 1 .261.035.992.992 0 0 1 .606.465.99.99 0 0 1 .099.76z"/><path d="m6.726 16.454a2.993 2.993 0 0 0 -.235 5.836 3.038 3.038 0 0 0 .781.1 3 3 0 0 0 2.594-4.5l-3.5-6.06 6.928-4 1.091 1.89a2.994 2.994 0 0 0 -.234 5.838 3.04 3.04 0 0 0 .782.1 3 3 0 0 0 2.593-4.5l-3-5.194-2-3.464a1 1 0 0 0 -1.366-.366l-8.66 5a1 1 0 0 0 -.366 1.366l2 3.464zm9.174-3.535a1 1 0 1 1 -.1-.76 1 1 0 0 1 .1.76zm-7.666 6.732a1 1 0 1 1 -.1-.759 1 1 0 0 1 .1.759zm3.06-15.285 1 1.732-6.928 4-1-1.732z"/></g></g></svg>